<svg width="690" height="216" viewBox="299 75 690 216" fill="none" xmlns="http://www.w3.org/2000/svg">
<path d="M299.671 291C297.41 291 295.559 290.28 294.12 288.841C292.681 287.402 291.961 285.552 291.961 283.29V82.8302C291.961 80.5686 292.681 78.7182 294.12 77.279C295.559 75.8398 297.41 75.1202 299.671 75.1202H383.864C400.518 75.1202 414.91 77.6902 427.04 82.8302C439.376 87.9702 448.937 95.783 455.721 106.269C462.712 116.549 466.207 129.399 466.207 144.819C466.207 160.444 462.712 173.397 455.721 183.677C448.937 193.751 439.376 201.256 427.04 206.19C414.91 211.124 400.518 213.592 383.864 213.592H342.539V283.29C342.539 285.552 341.819 287.402 340.38 288.841C338.941 290.28 337.09 291 334.829 291H299.671ZM341.614 175.35H382.322C392.808 175.35 400.929 172.78 406.686 167.64C412.648 162.5 415.63 154.79 415.63 144.51C415.63 135.464 412.957 128.062 407.611 122.305C402.471 116.549 394.042 113.67 382.322 113.67H341.614V175.35ZM514.315 349.596C512.67 349.596 511.128 348.979 509.689 347.746C508.455 346.512 507.839 344.97 507.839 343.12C507.839 342.708 507.941 342.092 508.147 341.269C508.353 340.652 508.661 339.83 509.072 338.802L533.127 281.131L473.915 141.426C473.298 139.781 472.989 138.445 472.989 137.417C473.195 135.567 473.915 134.025 475.148 132.791C476.382 131.352 477.924 130.632 479.774 130.632H509.689C512.362 130.632 514.315 131.352 515.549 132.791C516.782 134.025 517.707 135.361 518.324 136.8L556.566 232.404L595.733 136.8C596.555 135.155 597.583 133.716 598.817 132.483C600.05 131.249 602.003 130.632 604.676 130.632H633.974C635.825 130.632 637.367 131.352 638.6 132.791C640.039 134.025 640.759 135.464 640.759 137.109C640.759 138.137 640.348 139.576 639.525 141.426L552.248 343.428C551.631 345.073 550.603 346.512 549.164 347.746C547.931 348.979 545.977 349.596 543.305 349.596H514.315ZM663.877 349.596C661.615 349.596 659.765 348.876 658.326 347.437C656.886 345.998 656.167 344.148 656.167 341.886V138.342C656.167 136.081 656.886 134.23 658.326 132.791C659.765 131.352 661.615 130.632 663.877 130.632H693.175C695.436 130.632 697.287 131.352 698.726 132.791C700.165 134.23 700.885 136.081 700.885 138.342V150.061C705.819 143.482 712.193 138.137 720.006 134.025C727.818 129.707 737.584 127.548 749.304 127.548C759.995 127.548 769.247 129.296 777.06 132.791C785.078 136.081 791.76 140.912 797.106 147.286C802.657 153.454 806.872 160.958 809.75 169.799C812.834 178.64 814.582 188.611 814.993 199.714C815.198 203.62 815.301 207.321 815.301 210.816C815.301 214.311 815.198 218.115 814.993 222.227C814.787 232.712 813.142 242.376 810.058 251.216C807.18 260.057 802.965 267.664 797.414 274.038C791.863 280.412 785.078 285.346 777.06 288.841C769.247 292.336 759.995 294.084 749.304 294.084C738.818 294.084 729.669 292.234 721.856 288.533C714.249 284.626 707.978 279.384 703.044 272.804V341.886C703.044 344.148 702.324 345.998 700.885 347.437C699.446 348.876 697.698 349.596 695.642 349.596H663.877ZM735.426 257.076C743.238 257.076 749.406 255.431 753.93 252.142C758.453 248.646 761.64 244.123 763.49 238.572C765.546 233.021 766.78 226.956 767.191 220.376C767.602 214.003 767.602 207.629 767.191 201.256C766.78 194.676 765.546 188.611 763.49 183.06C761.64 177.509 758.453 173.089 753.93 169.799C749.406 166.304 743.238 164.556 735.426 164.556C727.818 164.556 721.65 166.304 716.922 169.799C712.193 173.294 708.8 177.715 706.744 183.06C704.688 188.406 703.455 194.162 703.044 200.33C702.838 204.031 702.735 207.835 702.735 211.741C702.735 215.648 702.838 219.554 703.044 223.46C703.249 229.217 704.483 234.666 706.744 239.806C709.212 244.74 712.707 248.852 717.23 252.142C721.959 255.431 728.024 257.076 735.426 257.076ZM910.31 294.084C886.666 294.084 867.854 287.505 853.873 274.346C840.098 261.188 832.799 242.067 831.976 216.984C831.976 215.339 831.976 213.18 831.976 210.508C831.976 207.629 831.976 205.368 831.976 203.723C832.799 187.892 836.397 174.322 842.77 163.014C849.144 151.501 858.088 142.763 869.601 136.8C881.115 130.632 894.582 127.548 910.001 127.548C927.272 127.548 941.664 131.146 953.177 138.342C964.897 145.333 973.635 154.996 979.391 167.332C985.354 179.462 988.335 193.443 988.335 209.274V216.367C988.335 218.423 987.513 220.171 985.868 221.61C984.429 223.049 982.681 223.769 980.625 223.769H879.778C879.778 223.974 879.778 224.386 879.778 225.002C879.778 225.414 879.778 225.825 879.778 226.236C879.984 232.815 881.218 238.88 883.479 244.432C885.946 249.777 889.339 254.095 893.656 257.384C898.18 260.674 903.525 262.319 909.693 262.319C914.833 262.319 919.048 261.599 922.337 260.16C925.627 258.721 928.3 256.973 930.356 254.917C932.617 252.861 934.262 251.114 935.29 249.674C937.141 247.618 938.58 246.385 939.608 245.974C940.841 245.357 942.692 245.048 945.159 245.048H977.233C979.289 245.048 980.933 245.665 982.167 246.899C983.606 247.927 984.223 249.469 984.017 251.525C983.812 254.814 982.064 258.926 978.775 263.861C975.691 268.59 971.065 273.318 964.897 278.047C958.729 282.57 951.019 286.374 941.767 289.458C932.72 292.542 922.235 294.084 910.31 294.084ZM879.778 195.704H940.225V195.088C940.225 187.686 938.991 181.313 936.524 175.967C934.262 170.416 930.87 166.098 926.347 163.014C921.823 159.93 916.375 158.388 910.001 158.388C903.628 158.388 898.18 159.93 893.656 163.014C889.133 166.098 885.638 170.416 883.171 175.967C880.909 181.313 879.778 187.686 879.778 195.088V195.704Z" fill="#FF6B6B"/>
</svg>
